# xmcd
#
# Track frame offsets: 
#        150
#        16843
#        30850
#        49239
#        65349
#        77380
#        98936
#        120072
#        140462
#        166389
#
# Disc length: 2433 seconds
#
# Revision: 0
# Processed by: cddbd v1.5.2PL0 Copyright (c) Steve Scherf et al.
# Submitted via: ExactAudioCopy v1.0b1
#
DISCID=6a097f0a
DTITLE=Le Cat Trong Ly - Le Cat Trong Ly
DYEAR=2011
DGENRE=Ballad
TTITLE0=Giac mong lon
TTITLE1=Mua yeu
TTITLE2=Lung ta lung tung
TTITLE3=Chenh venh
TTITLE4=Huong lac
TTITLE5=Chuyen xe
TTITLE6=Khong ten
TTITLE7=Troi oi
TTITLE8=Con bao nghieng dem
TTITLE9=Chenh venh (guitar version)
EXTD=
EXTT0=
EXTT1=
EXTT2=
EXTT3=
EXTT4=
EXTT5=
EXTT6=
EXTT7=
EXTT8=
EXTT9=
PLAYORDER=
